<svg xmlns="http://www.w3.org/2000/svg" width="166" height="44" fill="none"><path d="M.022 26.676h16.561l2.383-5.665H.022v5.665zM0 19.881l20.437-2.812 2.502-6.074L0 14.188v5.693zm0-6.808l24.817-6.3L27.614 0 0 7.194v5.879z" fill="#0099fa"/><path d="M39.704 16.048h5.444l1.801-4.241h-7.246V8.868h8.487l1.924-4.531.018-.045H34.368v19.414H50.16v-4.577H39.704v-3.08zm67.977-9.938c-1.455-1.21-3.426-1.814-5.913-1.814h-8.337v19.405h5.394v-5.556h2.67c2.502 0 4.521-.605 6.059-1.814 1.537-1.216 2.306-2.939 2.306-5.157s-.728-3.846-2.179-5.058m-4.034 7.14c-.649.498-1.457.744-2.275.694h-2.556V8.814h2.529a3.61 3.61 0 0 1 2.274.649 2.29 2.29 0 0 1 .637.853c.142.33.205.689.182 1.048a2.34 2.34 0 0 1-.819 1.887m13.51-8.96h-5.395v19.414h11.936l2.001-4.717h-8.542V4.291zm17.73-.136l-6.964 16.425-1.324 3.121h5.672l1.388-3.465h7.509l1.415 3.465h5.785l-8.287-19.545h-5.194zm.359 11.893l2.197-5.516 2.17 5.516h-4.367zm24.021-11.757l-4.03 7.071-4.002-7.071h-6.145l7.395 12.147v7.267h5.422v-7.348l7.396-12.066h-6.036zm-93.153 0l-4.421 12.288-4.421-12.288h-6.031l7.896 19.55h5.003l7.896-19.55h-5.922zm15.041-.34c-2-.001-3.955.589-5.619 1.696s-2.961 2.681-3.728 4.523a10.06 10.06 0 0 0-.581 5.826 10.08 10.08 0 0 0 2.761 5.167c1.412 1.412 3.213 2.375 5.174 2.767a10.14 10.14 0 0 0 5.843-.564 10.11 10.11 0 0 0 4.545-3.705 10.07 10.07 0 0 0 1.716-5.599c.003-1.326-.256-2.64-.763-3.866s-1.251-2.341-2.19-3.28a10.12 10.12 0 0 0-3.283-2.193 10.14 10.14 0 0 0-3.875-.771zm0 15.377a5.32 5.32 0 0 1-2.956-.887 5.3 5.3 0 0 1-1.961-2.377A5.28 5.28 0 0 1 75.908 13a5.29 5.29 0 0 1 1.457-2.713 5.31 5.31 0 0 1 2.725-1.446 5.32 5.32 0 0 1 3.071.31 5.31 5.31 0 0 1 2.379 1.961c.581.874.888 1.901.882 2.95a5.28 5.28 0 0 1-1.553 3.74 5.31 5.31 0 0 1-3.75 1.549" fill="#fff"/><path d="M38.208 43.998a4.02 4.02 0 0 1-1.631-.298 4.01 4.01 0 0 1-1.371-.931 4.41 4.41 0 0 1 0-6.069 4.11 4.11 0 0 1 1.4-.941 4.1 4.1 0 0 1 1.661-.298c.623-.017 1.242.096 1.819.331a5 5 0 0 1 1.41.953l-.91 1.075a3.4 3.4 0 0 0-2.32-1.025c-.374-.013-.746.056-1.09.204a2.53 2.53 0 0 0-.898.649 3.17 3.17 0 0 0 0 4.169c.243.276.544.495.881.643a2.54 2.54 0 0 0 1.071.214 2.83 2.83 0 0 0 1.255-.268c.413-.212.792-.484 1.123-.807l.91.944a4.91 4.91 0 0 1-1.478 1.098 4.38 4.38 0 0 1-1.833.358zm9.124-.145v-8.255h1.456v6.935h4.348v1.32h-5.804zm11.657 0v-8.255h1.456v8.255h-1.456zm7.924 0v-8.255h6.141v1.297h-4.685v2.145h4.153v1.297h-4.153v2.218h4.744v1.297h-6.2zm12.181 0v-8.255h1.364l4.435 5.711v-5.711h1.428v8.255h-1.219l-4.549-5.897v5.897h-1.46zm15.633 0v-6.908h-2.624v-1.361h6.718v1.361h-2.624v6.908h-1.469zm16.985 0l3.639-8.314h1.364l3.639 8.314h-1.546l-.842-1.991h-3.912l-.85 1.991h-1.492zm2.875-3.279h2.847l-1.446-3.302-1.401 3.302zm11.434 3.28v-8.255h3.689a3.32 3.32 0 0 1 2.275.717 2.68 2.68 0 0 1 .282 3.524 2.83 2.83 0 0 1-1.442.907l2.233 3.125h-1.715l-2.056-2.876h-1.796v2.876l-1.47-.018zm1.456-4.164h2.129c.445.024.885-.109 1.241-.377a1.26 1.26 0 0 0 .348-.459 1.25 1.25 0 0 0 .107-.566 1.21 1.21 0 0 0-.455-1.016 1.98 1.98 0 0 0-1.264-.354h-2.115l.009 2.771zm11.353 4.163v-8.255h6.136v1.297h-4.68v2.145h4.148v1.297h-4.148v2.218h4.739v1.297h-6.195zm11.471 0l3.639-8.314h1.364l3.639 8.314h-1.565l-.841-1.991h-3.912l-.855 1.991h-1.469zm2.874-3.279h2.839l-1.429-3.302-1.41 3.302z" fill="#878787"/></svg>