<svg xmlns="http://www.w3.org/2000/svg" width="241" height="64" fill="none"><path d="M.033 38.801h24.089l3.467-8.24H.033v8.241zM0 28.918l29.726-4.091 3.639-8.834L0 20.638v8.28zm0-9.903L36.097 9.85 40.166 0 0 10.464v8.551z" fill="#0099fa"/><path d="M57.751 23.343h7.919l2.62-6.169H57.751v-4.275h12.346l2.799-6.591.026-.066H49.991V34.48h22.971v-6.657h-15.21v-4.48zm98.877-14.456c-2.117-1.759-4.984-2.639-8.601-2.639H135.9v28.225h7.846v-8.082h3.884c3.639 0 6.576-.88 8.812-2.639 2.237-1.768 3.355-4.275 3.355-7.502s-1.059-5.595-3.169-7.356m-5.869 10.385a4.94 4.94 0 0 1-3.308 1.009h-3.718v-7.469h3.679a5.26 5.26 0 0 1 3.308.944 3.33 3.33 0 0 1 .926 1.24 3.32 3.32 0 0 1 .264 1.524 3.4 3.4 0 0 1-.277 1.509 3.42 3.42 0 0 1-.913 1.235m19.649-13.03h-7.846V34.48h17.36l2.911-6.862h-12.425V6.241zm25.789-.197l-10.129 23.89-1.925 4.539h8.25l2.018-5.041h10.923l2.058 5.041h8.415l-12.054-28.43h-7.556zm.523 17.299l3.196-8.023 3.155 8.023h-6.351zM231.62 6.241l-5.861 10.286-5.822-10.286h-8.939l10.758 17.669v10.57h7.886V23.791L240.4 6.241h-8.78zm-135.496 0l-6.431 17.873-6.431-17.873H74.49l11.486 28.436h7.278l11.485-28.436h-8.614zm21.879-.494c-2.909-.001-5.753.857-8.173 2.467s-4.307 3.899-5.422 6.578-1.41 5.628-.846 8.474a14.66 14.66 0 0 0 4.016 7.515 14.73 14.73 0 0 0 7.525 4.025 14.75 14.75 0 0 0 8.5-.82 14.7 14.7 0 0 0 6.611-5.39 14.64 14.64 0 0 0 2.497-8.144 14.65 14.65 0 0 0-1.11-5.624 14.67 14.67 0 0 0-3.186-4.771 14.72 14.72 0 0 0-4.775-3.19 14.75 14.75 0 0 0-5.637-1.122zm0 22.366a7.73 7.73 0 0 1-4.299-1.291 7.71 7.71 0 0 1-2.852-3.458 7.68 7.68 0 0 1-.44-4.456c.298-1.496 1.036-2.87 2.119-3.947a7.73 7.73 0 0 1 3.963-2.104 7.74 7.74 0 0 1 4.467.451 7.71 7.71 0 0 1 3.46 2.853 7.68 7.68 0 0 1 1.283 4.29 7.68 7.68 0 0 1-2.259 5.44c-1.447 1.443-3.409 2.253-5.455 2.253" fill="#fff"/><path d="M55.575 63.998a5.85 5.85 0 0 1-2.373-.434 5.84 5.84 0 0 1-1.994-1.354c-1.131-1.193-1.761-2.772-1.761-4.414s.63-3.221 1.761-4.414a5.95 5.95 0 0 1 2.036-1.368 5.97 5.97 0 0 1 2.417-.433 6.54 6.54 0 0 1 2.646.482 7.28 7.28 0 0 1 2.051 1.386l-1.323 1.564a4.94 4.94 0 0 0-3.374-1.491 3.69 3.69 0 0 0-1.585.296c-.5.215-.946.537-1.306.944a4.61 4.61 0 0 0 0 6.063c.354.401.791.72 1.281.936s1.022.322 1.557.311c.631.012 1.255-.122 1.826-.389a6.74 6.74 0 0 0 1.634-1.174l1.323 1.372c-.609.663-1.339 1.205-2.15 1.597a6.36 6.36 0 0 1-2.666.521zm13.271-.211V51.779h2.117v10.088h6.325v1.92h-8.442zm16.957 0V51.779h2.117v12.008h-2.117zm11.525 0V51.779h8.932v1.887h-6.815v3.121h6.041v1.887h-6.041V61.9h6.901v1.887h-9.018zm17.718 0V51.779h1.985l6.45 8.307v-8.307h2.078v12.008h-1.773l-6.616-8.577v8.577h-2.124zm22.739 0V53.739h-3.817V51.76h9.772v1.979h-3.818v10.048h-2.137zm24.705 0l5.292-12.094h1.985l5.293 12.094h-2.249l-1.224-2.896h-5.69l-1.237 2.896h-2.17zm4.181-4.77h4.141l-2.103-4.803-2.038 4.803zm16.632 4.77V51.779h5.366c1.194-.074 2.374.297 3.308 1.042.681.659 1.097 1.543 1.173 2.486a3.89 3.89 0 0 1-.763 2.64 4.11 4.11 0 0 1-2.097 1.32l3.248 4.546h-2.494l-2.99-4.183h-2.614v4.183l-2.137-.026zm2.118-6.057h3.096a2.76 2.76 0 0 0 1.806-.548 1.84 1.84 0 0 0 .506-.668c.115-.259.168-.54.156-.823.015-.281-.037-.562-.152-.819a1.77 1.77 0 0 0-.51-.659 2.89 2.89 0 0 0-1.839-.515h-3.077l.014 4.031zm16.513 6.057V51.779h8.925v1.887h-6.808v3.121h6.034v1.887h-6.034V61.9h6.894v1.887h-9.011zm16.686 0l5.293-12.094h1.984l5.293 12.094h-2.276l-1.224-2.896h-5.689l-1.244 2.896h-2.137zm4.181-4.77h4.129l-2.078-4.803-2.051 4.803z" fill="#878787"/></svg>