<svg xmlns="http://www.w3.org/2000/svg" width="24" height="24" fill="none"><path fill-rule="evenodd" d="M19 1.25h-.045c-.433 0-.83 0-1.152.043-.356.048-.731.16-1.04.469s-.421.685-.469 1.04c-.043.323-.043.72-.043 1.152h0V4v13 .045h0l.043 1.152c.048.356.16.731.469 1.04s.685.421 1.04.469c.323.043.72.043 1.152.043H19h.045l1.152-.043c.356-.048.731-.16 1.04-.469s.421-.685.469-1.04c.043-.323.043-.72.043-1.152h0V17 4v-.045h0l-.043-1.152c-.048-.355-.16-.731-.469-1.04s-.685-.421-1.04-.469c-.323-.043-.72-.043-1.152-.043H19zm-1.174 1.572l-.003.001-.001.002c-.014.032-.029.08-.042.177-.028.211-.03.505-.03.997v13l.03.997a.7.7 0 0 0 .037.167l.006.013.003.001c.032.014.08.029.177.042.211.028.505.03.997.03l.997-.03a.7.7 0 0 0 .167-.037l.013-.006.001-.003c.014-.032.029-.08.042-.177.028-.211.03-.505.03-.997V4l-.03-.997c-.013-.097-.028-.145-.037-.167l-.006-.013-.003-.001c-.032-.014-.08-.029-.177-.042-.211-.028-.505-.03-.997-.03l-.997.03c-.097.013-.145.028-.167.037zm-5.87 1.428H12h.045l1.152.043c.355.048.731.16 1.04.469s.422.685.469 1.04c.043.323.043.72.043 1.152h0 0V7v10 .045h0 0l-.043 1.152c-.048.356-.16.731-.469 1.04s-.685.421-1.04.469c-.323.043-.72.043-1.152.043h0H12h-.045 0c-.433 0-.83 0-1.152-.043-.355-.048-.731-.16-1.04-.469s-.421-.685-.469-1.04c-.043-.323-.043-.72-.043-1.152V17 7v-.045l.043-1.152c.048-.355.16-.731.469-1.04s.685-.421 1.04-.469c.323-.043.72-.043 1.152-.043zm-1.132 1.573l.002-.001c.032-.014.08-.029.177-.042.211-.028.505-.03.997-.03l.997.03c.097.013.145.028.167.037l.013.006.001.002c.014.032.029.08.042.177.028.211.03.505.03.997v10l-.03.997a.7.7 0 0 1-.037.167l-.006.013-.002.001-.003.002-.007.003a.7.7 0 0 1-.167.037c-.211.028-.505.03-.997.03s-.787-.002-.997-.03c-.097-.013-.145-.028-.167-.037l-.013-.006h0 0 0 0 0l-.001-.002c-.014-.032-.029-.08-.042-.177-.028-.211-.03-.505-.03-.997V7l.03-.997c.013-.097.028-.145.037-.167l.006-.013zM5 8.25h-.045c-.433 0-.83 0-1.152.043-.355.048-.731.16-1.04.469s-.421.685-.469 1.04c-.043.323-.043.72-.043 1.152V11v6 .045l.043 1.152c.048.356.16.731.469 1.04s.685.421 1.04.469c.323.043.72.043 1.152.043h0H5h.045 0l1.152-.043c.355-.048.731-.16 1.04-.469s.421-.685.469-1.04c.043-.323.043-.72.043-1.152h0V17v-6-.045h0l-.043-1.152c-.048-.355-.16-.731-.469-1.04s-.685-.421-1.04-.469c-.323-.043-.72-.043-1.152-.043H5zM3.826 9.822l-.002.001-.001.002c-.014.032-.029.08-.042.177-.028.211-.03.505-.03.997v6l.03.997c.013.097.028.145.037.167l.006.012h0 0 0l.002.001c.032.014.08.029.177.042.211.028.505.03.997.03l.997-.03c.097-.013.145-.028.167-.037l.013-.006.001-.003c.014-.032.029-.08.042-.177.028-.211.03-.505.03-.997v-6l-.03-.997c-.013-.097-.028-.145-.037-.167l-.006-.013-.002-.001c-.032-.014-.08-.029-.177-.042-.211-.028-.505-.03-.997-.03l-.997.03c-.097.013-.145.028-.167.037zM3 21.25a.75.75 0 1 0 0 1.5h18a.75.75 0 1 0 0-1.5H3z" fill="#888b8d"/></svg>