<svg xmlns="http://www.w3.org/2000/svg" width="24" height="26" fill="#888b8d" fill-rule="evenodd"><path d="M4.583 3.8C4.583 1.919 6.119.383 8 .383h8.667c.872 0 1.728.35 2.397 1.02l3.299 3.299c.744.584 1.054 1.492 1.054 2.431v10.933c0 1.881-1.536 3.417-3.417 3.417H8c-1.881 0-3.417-1.536-3.417-3.417V3.8zM8 1.883c-1.052 0-1.917.864-1.917 1.917v14.267c0 1.052.864 1.917 1.917 1.917h12c1.052 0 1.917-.864 1.917-1.917V7.133c0-.641-.21-1.049-.5-1.267a.75.75 0 0 1-.08-.07l-3.333-3.333c-.397-.397-.875-.58-1.336-.58H8z"/><path d="M16 .25a.75.75 0 0 1 .75.75v5.333c0 .23.073.363.147.436s.207.147.436.147h5.333a.75.75 0 1 1 0 1.5h-5.333c-.57 0-1.104-.193-1.497-.586s-.586-.927-.586-1.497V1A.75.75 0 0 1 16 .25zM4 5.75c-1.052 0-1.917.864-1.917 1.917v14.667c0 1.052.864 1.917 1.917 1.917h12c1.052 0 1.917-.864 1.917-1.917V20.6a.75.75 0 1 1 1.5 0v1.733c0 1.881-1.536 3.417-3.417 3.417H4c-1.881 0-3.417-1.536-3.417-3.417V7.667C.583 5.786 2.119 4.25 4 4.25h1.333a.75.75 0 1 1 0 1.5H4z"/></svg>