<svg xmlns="http://www.w3.org/2000/svg" width="24" height="24" fill="none"><path d="M5.658 3.454c.505-.179 1.019-.204 1.444-.204h.612a4.99 4.99 0 0 1 2.883.917l.502.355a1.56 1.56 0 0 0 1.8 0l.502-.355a4.99 4.99 0 0 1 2.883-.917h.613c.425 0 .939.024 1.444.204 1.443.512 2.585 1.688 3.336 3.591.744 1.884 1.126 4.519 1.066 8.07-.013.75-.106 1.589-.394 2.346-.292.767-.802 1.489-1.66 1.899a3.95 3.95 0 0 1-1.716.389 3.49 3.49 0 0 1-1.942-.559c-.472-.31-.885-.71-1.238-1.052l-.126-.122c-.405-.39-.745-.694-1.123-.89a3.36 3.36 0 0 0-1.545-.377h-1.998a3.35 3.35 0 0 0-1.545.377c-.378.196-.718.5-1.123.89l-.126.122c-.353.342-.766.742-1.238 1.052-.508.333-1.155.559-1.942.559a3.95 3.95 0 0 1-1.716-.389c-.858-.41-1.368-1.133-1.66-1.899-.288-.757-.382-1.597-.394-2.346-.06-3.551.322-6.187 1.066-8.07.752-1.903 1.893-3.08 3.336-3.591zM7.103 4.75c-.383 0-.686.027-.943.117-.939.333-1.809 1.124-2.443 2.729-.642 1.624-1.02 4.037-.961 7.494.011.662.095 1.309.296 1.838.198.519.49.881.906 1.08a2.45 2.45 0 0 0 1.069.242c.485 0 .848-.136 1.12-.314.346-.227.653-.523 1.022-.88l.125-.12c.401-.386.88-.834 1.473-1.141.691-.358 1.457-.545 2.235-.545H13c.778 0 1.544.187 2.235.545.592.307 1.072.755 1.473 1.141l.125.12c.369.357.676.653 1.022.88.272.178.635.314 1.12.314a2.45 2.45 0 0 0 1.069-.242c.416-.199.708-.561.906-1.08.201-.529.285-1.175.296-1.838.058-3.456-.32-5.869-.961-7.494-.634-1.605-1.503-2.396-2.443-2.729-.256-.091-.559-.117-.943-.117h-.613a3.49 3.49 0 0 0-2.017.641l-.502.355c-.516.366-1.134.562-1.766.562a3.06 3.06 0 0 1-1.766-.562l-.502-.355.433-.612-.433.612a3.49 3.49 0 0 0-2.017-.641h-.612zm.397 3.5a.75.75 0 0 1 .75.75v.75H9a.75.75 0 1 1 0 1.5h-.75V12a.75.75 0 1 1-1.5 0v-.75H6a.75.75 0 1 1 0-1.5h.75V9a.75.75 0 0 1 .75-.75z" fill-rule="evenodd" fill="#888b8d"/><path d="M19 10.25a.75.75 0 1 1-1.5 0 .75.75 0 1 1 1.5 0zm-3 0a.75.75 0 1 1-1.5 0 .75.75 0 1 1 1.5 0zM16.75 8a.75.75 0 1 1 0 1.5.75.75 0 1 1 0-1.5zm0 3a.75.75 0 1 1 0 1.5.75.75 0 1 1 0-1.5z" fill="#888b8d"/></svg>