<svg xmlns="http://www.w3.org/2000/svg" width="24" height="24" fill="none"><path fill-rule="evenodd" d="M13.539 1.25h-3.079c-1.603 0-2.86 0-3.864.095-1.024.097-1.862.299-2.6.752a5.75 5.75 0 0 0-1.898 1.898c-.453.739-.655 1.577-.752 2.6C1.25 7.6 1.25 8.857 1.25 10.461v1.067h0l.049 2.759c.05.736.154 1.348.388 1.914A5.75 5.75 0 0 0 4.8 19.312c.805.333 1.722.407 2.977.429l.929.037c.198.022.275.054.32.08s.112.078.224.232c.121.167.258.397.476.764l.542.916c.774 1.307 2.691 1.307 3.464 0l.542-.916.476-.764c.112-.154.177-.204.224-.232s.122-.058.32-.08c.212-.023.49-.029.929-.037 1.255-.022 2.172-.096 2.977-.429a5.75 5.75 0 0 0 3.112-3.112c.235-.566.338-1.178.388-1.914.049-.723.049-1.618.049-2.759v-1.067h0l-.096-3.864c-.097-1.024-.299-1.862-.752-2.6a5.75 5.75 0 0 0-1.898-1.898c-.739-.453-1.577-.655-2.601-.752-1.004-.095-2.261-.095-3.864-.095zm-8.76 2.126c.464-.284 1.045-.451 1.959-.538.925-.088 2.111-.089 3.762-.089h3l3.762.089c.914.087 1.495.253 1.959.538a4.25 4.25 0 0 1 1.403 1.403c.284.464.451 1.045.538 1.959.088.925.089 2.111.089 3.762v1l-.046 2.685c-.045.659-.132 1.089-.278 1.442a4.25 4.25 0 0 1-2.3 2.3c-.516.214-1.174.293-2.429.315h-.032l-1.037.045c-.311.035-.616.104-.909.274s-.5.394-.682.645c-.169.232-.342.524-.538.856l-.558.943c-.193.326-.69.326-.883 0L11 20.062h0l-.538-.856c-.183-.25-.392-.476-.682-.645s-.597-.24-.909-.274c-.29-.032-.639-.038-1.037-.045h-.032c-1.255-.022-1.913-.101-2.429-.315a4.25 4.25 0 0 1-2.3-2.3c-.146-.353-.233-.783-.278-1.442-.045-.666-.046-1.51-.046-2.685v-1l.089-3.762c.087-.914.253-1.495.538-1.959a4.25 4.25 0 0 1 1.403-1.403zM17.25 9.715c0-1.569-.743-2.824-1.978-3.286-1.043-.39-2.229-.137-3.272.673-1.043-.81-2.229-1.063-3.272-.673C7.493 6.89 6.75 8.145 6.75 9.715c0 1.161.699 2.243 1.433 3.081.758.865 1.679 1.612 2.362 2.116l.08.06h0c.372.276.792.589 1.374.589s1.003-.312 1.374-.589l.08-.06c.683-.504 1.604-1.251 2.362-2.116.734-.839 1.433-1.92 1.433-3.081zm-4.714-1.084c.869-.888 1.694-.991 2.211-.797.509.19 1.003.774 1.003 1.881 0 .592-.383 1.318-1.062 2.093-.656.749-1.48 1.422-2.123 1.896l-.464.321c-.066.035-.084.035-.099.035H12h-.002c-.014 0-.033 0-.099-.035-.098-.053-.221-.142-.464-.321-.644-.474-1.468-1.148-2.123-1.897-.679-.775-1.062-1.502-1.062-2.093 0-1.108.495-1.691 1.003-1.881.517-.193 1.342-.09 2.211.797a.75.75 0 0 0 1.072 0z" fill="#888b8d"/></svg>