<svg xmlns="http://www.w3.org/2000/svg" width="24" height="24" fill="#888b8d" fill-rule="evenodd"><path d="M2.25 12.027V12h1.5l.161 5.312c.08.77.197 1.428.361 1.948.167.531.361.845.545 1.008.495.44 1.178.703 2.335.841 1.171.14 2.709.141 4.849.141l4.849-.141c1.157-.138 1.84-.401 2.335-.841.184-.163.378-.477.545-1.008.164-.52.281-1.178.361-1.948.16-1.543.161-3.415.161-5.312h1.5v.027l-.169 5.439c-.085.819-.215 1.588-.422 2.244-.203.645-.504 1.256-.979 1.678-.823.732-1.86 1.055-3.154 1.209-1.27.152-2.898.152-4.976.152h-.102c-2.078 0-3.706 0-4.976-.152-1.294-.155-2.33-.477-3.154-1.209-.475-.422-.776-1.033-.979-1.678-.207-.656-.337-1.425-.422-2.244-.169-1.628-.169-3.574-.169-5.439z"/><path d="M6.775 5.25h10.449l2.008.044c.549.045 1.031.14 1.477.368a3.75 3.75 0 0 1 1.629 1.629c.228.446.323.928.368 1.477.044.533.044 1.192.044 2.008v.032.086c.001.338.002.698-.128 1.02a1.75 1.75 0 0 1-.526.706c-.271.218-.616.32-.94.416l-.083.025-6.198 1.859-.431-1.437 6.198-1.859.431-.137a.54.54 0 0 0 .084-.037.25.25 0 0 0 .074-.099.53.53 0 0 0 .012-.091c.007-.097.007-.227.007-.452l-.039-1.918c-.037-.456-.107-.717-.209-.916a2.25 2.25 0 0 0-.977-.977c-.198-.101-.46-.171-.916-.209-.465-.038-1.061-.039-1.918-.039H6.808l-1.917.039c-.456.037-.717.107-.916.209a2.25 2.25 0 0 0-.977.977c-.101.198-.171.46-.209.916-.038.465-.039 1.061-.039 1.918l.007.452a.54.54 0 0 0 .012.091.25.25 0 0 0 .074.099.54.54 0 0 0 .084.037 7.34 7.34 0 0 0 .431.137l6.198 1.859-.431 1.437-6.198-1.859-.083-.025c-.324-.096-.669-.199-.94-.416a1.75 1.75 0 0 1-.525-.706c-.131-.322-.13-.682-.129-1.02v-.086-.032l.044-2.008c.045-.549.14-1.031.368-1.477a3.75 3.75 0 0 1 1.629-1.629c.446-.228.928-.323 1.477-.368.533-.044 1.192-.044 2.008-.044zm-3.935 6.199h0zm-.071-.096h0zm18.461 0h0zm-.071.096h0z"/><path d="M8.75 13A1.25 1.25 0 0 1 10 11.75h4A1.25 1.25 0 0 1 15.25 13v2.162a1.25 1.25 0 0 1-.786 1.161l-.7.28a4.75 4.75 0 0 1-3.528 0l-.7-.28a1.25 1.25 0 0 1-.786-1.161V13zm1.5.25v1.742l.543.217a3.25 3.25 0 0 0 2.414 0l.543-.217V13.25h-3.5zm3.657 1.679h0 0zM12 2.75a2.25 2.25 0 0 0-2.122 1.5.75.75 0 1 1-1.414-.5 3.75 3.75 0 0 1 7.073 0 .75.75 0 1 1-1.414.5A2.25 2.25 0 0 0 12 2.75z"/></svg>