<svg xmlns="http://www.w3.org/2000/svg" width="24" height="24" fill="none"><path fill-rule="evenodd" d="M12.25 2.834c-.46-.078-1.088-.084-2.22-.084l-4.312.14c-1.012.135-1.593.389-2.016.812s-.677 1.003-.812 2.009C2.752 6.739 2.75 8.093 2.75 10v4l.14 4.289c.135 1.006.389 1.586.812 2.009s1.003.677 2.009.812c1.028.138 2.382.14 4.289.14h4l4.289-.14c1.006-.135 1.586-.389 2.009-.812s.677-1.003.812-2.009c.138-1.028.14-2.382.14-4.289v-.437c0-1.536-.011-2.264-.174-2.813h-3.13c-1.133 0-2.059 0-2.789-.098-.764-.103-1.426-.325-1.955-.854s-.751-1.191-.854-1.955c-.098-.731-.098-1.657-.098-2.789V2.834zm7.769 6.416L18.85 8.174l-3.959-3.563L13.75 3.61V5l.085 2.643c.08.598.224.891.428 1.094s.496.347 1.094.428c.619.083 1.444.085 2.643.085h2.019zm-6.741-7.685c-.823-.316-1.718-.316-3.102-.315h-.146-.056c-1.848 0-3.311 0-4.455.153-1.177.157-2.129.489-2.878 1.238s-1.08 1.697-1.238 2.87C1.25 6.65 1.25 8.106 1.25 9.944h0v4.113h0l.153 4.433c.158 1.172.49 2.121 1.238 2.87s1.697 1.081 2.87 1.238c1.139.153 2.595.153 4.433.153h0 4.113 0l4.433-.153c1.172-.158 2.121-.49 2.87-1.238s1.08-1.697 1.238-2.87c.153-1.139.153-2.595.153-4.433h0v-.494-.168c0-1.592.001-2.621-.411-3.546s-1.177-1.613-2.361-2.678l-.125-.112-3.959-3.563-.107-.097c-1.024-.922-1.686-1.518-2.509-1.834zM6 13.75a.75.75 0 1 0 0 1.5h8a.75.75 0 1 0 0-1.5H6zM5.25 18a.75.75 0 0 1 .75-.75h5.5a.75.75 0 1 1 0 1.5H6a.75.75 0 0 1-.75-.75z" fill="#888b8d"/></svg>