<svg xmlns="http://www.w3.org/2000/svg" width="161" height="36" fill="none"><g fill="#0099fa"><path d="M0 26.289v6.78h19.064l2.885-6.78H0zm0-8.198v6.887l23.958-3.358 3.12-7.339L0 18.091zm0-8.46v7.102L29.258 9.2 32.742 1 0 9.631z"/><path d="M17.632 22.005c.206-.033.394-.139.53-.298s.21-.363.21-.573-.075-.413-.21-.573-.323-.266-.53-.298c-.206.033-.394.138-.53.298s-.21.363-.21.573.075.414.21.573.323.266.53.298z"/></g><path d="M43.979 11.333h5.062l1.654-3.976H43.98V4.604h7.88L53.647.356l.017-.034H39.035v18.181H53.68v-4.282h-9.702v-2.889zM101.565.324h-7.744v18.181h5.062v-5.199h2.497a8.68 8.68 0 0 0 5.619-1.699 5.8 5.8 0 0 0 1.649-2.152 5.83 5.83 0 0 0 .493-2.673 5.87 5.87 0 0 0-.465-2.608 5.84 5.84 0 0 0-1.559-2.133 8.23 8.23 0 0 0-5.552-1.716zm1.687 8.394a3.14 3.14 0 0 1-2.041.578h-2.379V4.555h2.345c.757-.042 1.506.173 2.126.612.245.208.44.469.571.763a2.17 2.17 0 0 1 .189.936c.027.347-.027.696-.16 1.018a2.22 2.22 0 0 1-.6.834h-.051zM115.823.323h-5.011v18.181h11.068l1.856-4.418h-7.913V.323zm16.433-.135l-6.462 15.394-1.216 2.923h5.265l1.283-3.245h6.968l1.315 3.245h5.366L137.081.188h-4.825zm.337 11.146l2.042-5.097 2.007 5.097h-4.049zM154.883.323l-3.745 6.627-3.712-6.627h-5.703l6.867 11.367v6.814h5.028v-6.881l6.867-11.3h-5.602zm-86.422 0l-4.1 11.503-4.1-11.503h-5.602l7.323 18.317h4.64L73.962.323h-5.5zM82.415 0c-1.855 0-3.669.554-5.212 1.592s-2.745 2.514-3.455 4.24a9.51 9.51 0 0 0-.534 5.458 9.47 9.47 0 0 0 2.568 4.837 9.36 9.36 0 0 0 4.803 2.585 9.32 9.32 0 0 0 5.42-.538c1.714-.715 3.179-1.926 4.21-3.48s1.581-3.38 1.581-5.249a9.48 9.48 0 0 0-2.748-6.68A9.35 9.35 0 0 0 82.415 0zm0 14.409c-.974 0-1.927-.291-2.737-.836s-1.442-1.32-1.815-2.227-.471-1.904-.28-2.867a4.97 4.97 0 0 1 1.348-2.54 4.92 4.92 0 0 1 2.523-1.358c.956-.192 1.946-.093 2.847.282s1.67 1.011 2.211 1.827a4.99 4.99 0 0 1 .83 2.756 4.98 4.98 0 0 1-1.449 3.497 4.91 4.91 0 0 1-3.478 1.447v.017z" fill="#fff"/><path d="M44.27 33.12c-.8 0-1.54-.13-2.22-.39-.67-.27-1.255-.645-1.755-1.125-.49-.49-.875-1.06-1.155-1.71s-.42-1.365-.42-2.145.14-1.495.42-2.145.67-1.215 1.17-1.695a5.13 5.13 0 0 1 1.755-1.125c.68-.27 1.42-.405 2.22-.405.81 0 1.555.14 2.235.42a4.51 4.51 0 0 1 1.755 1.215l-.975.945c-.4-.42-.85-.73-1.35-.93-.5-.21-1.035-.315-1.605-.315a4.48 4.48 0 0 0-1.65.3c-.5.2-.935.48-1.305.84s-.66.79-.87 1.29c-.2.49-.3 1.025-.3 1.605s.1 1.12.3 1.62c.21.49.5.915.87 1.275s.805.64 1.305.84a4.48 4.48 0 0 0 1.65.3 4.28 4.28 0 0 0 1.605-.3c.5-.21.95-.53 1.35-.96l.975.945c-.48.54-1.065.95-1.755 1.23-.68.28-1.43.42-2.25.42zm7.645-.12V22.5h1.5v9.195H59.1V33h-7.185zm10.406 0V22.5h1.5V33h-1.5zm7.508-5.97h5.4v1.275h-5.4V27.03zm.135 4.665h6.12V33h-7.62V22.5h7.41v1.305h-5.91v7.89zM80.014 33V22.5h1.23l6.945 8.625h-.645V22.5h1.5V33h-1.23l-6.945-8.625h.645V33h-1.5zm15.758 0v-9.195h-3.6V22.5h8.685v1.305h-3.6V33h-1.485zm12.157 0l4.755-10.5h1.485l4.77 10.5h-1.575l-4.245-9.66h.6L109.473 33h-1.545zm2.025-2.625l.405-1.2h5.91l.435 1.2h-6.75zM122.005 33V22.5h4.095c.92 0 1.705.145 2.355.435s1.15.71 1.5 1.26.525 1.205.525 1.965-.175 1.415-.525 1.965c-.35.54-.85.955-1.5 1.245s-1.435.435-2.355.435h-3.27l.675-.69V33h-1.5zm7.02 0l-2.67-3.81h1.605l2.7 3.81h-1.635zm-5.52-3.735l-.675-.735h3.225c.96 0 1.685-.205 2.175-.615.5-.42.75-1.005.75-1.755s-.25-1.33-.75-1.74c-.49-.41-1.215-.615-2.175-.615h-3.225l.675-.75v6.21zm12.263-2.235h5.4v1.275h-5.4V27.03zm.135 4.665h6.12V33h-7.62V22.5h7.41v1.305h-5.91v7.89zM144.362 33l4.755-10.5h1.485l4.77 10.5h-1.575l-4.245-9.66h.6L145.907 33h-1.545zm2.025-2.625l.405-1.2h5.91l.435 1.2h-6.75z" fill="#888b8d"/></svg>