<svg xmlns="http://www.w3.org/2000/svg" width="24" height="24" fill="none"><path fill-rule="evenodd" d="M7.498 1.607C8.661 1.411 10.172 1.25 12 1.25s3.339.161 4.502.357l.135.023c1.01.169 1.85.31 2.506 1.118.421.519.557 1.079.588 1.705l.454.151.037.012 1.191.439c.348.162.667.371.911.709s.341.707.384 1.089c.04.353.04.781.04 1.269v.112.033h0l-.03 1.053c-.032.322-.103.634-.281.937s-.417.516-.682.701c-.245.17-.555.342-.907.538l-2.641 1.467c-.539 1.061-1.28 2.008-2.3 2.691-.875.587-1.922.958-3.16 1.064v2.031h1.43a1.75 1.75 0 0 1 1.716 1.407l.219 1.093H18a.75.75 0 1 1 0 1.5h-2.5-7H6a.75.75 0 1 1 0-1.5h1.885l.219-1.093A1.75 1.75 0 0 1 9.82 18.75h1.43v-2.031c-1.238-.106-2.285-.477-3.16-1.064-1.019-.684-1.76-1.63-2.299-2.691L3.15 11.497l-.907-.538c-.266-.184-.504-.398-.682-.701s-.249-.615-.281-.937c-.03-.297-.03-.652-.03-1.054v-.033-.073-.039l.04-1.269c.044-.381.141-.75.384-1.089s.563-.547.911-.709c.322-.15.728-.285 1.191-.439l.037-.012.455-.152c.031-.626.167-1.186.588-1.705.657-.809 1.496-.949 2.506-1.118l.135-.023zM9.415 21.25h5.17l-.16-.799a.25.25 0 0 0-.245-.201H9.82a.25.25 0 0 0-.245.201l-.16.799zM4.302 6.023l-.014.005-1.07.389c-.218.101-.288.172-.327.226s-.084.143-.111.382c-.029.258-.031.599-.031 1.138v.073l.022.938c.02.197.052.275.081.325s.082.116.245.229c.176.122.42.259.809.475l1.066.592c-.428-1.57-.599-3.25-.671-4.771zm14.725 4.77c.427-1.57.599-3.25.671-4.77l.013.004 1.07.389c.218.101.288.172.327.226s.084.143.111.382c.029.258.03.599.03 1.138v.073l-.022.938c-.02.197-.052.275-.081.325s-.082.116-.245.229c-.176.122-.42.259-.809.475l-1.065.592zM12 2.75c-1.739 0-3.167.153-4.252.336-1.207.204-1.46.28-1.726.607s-.287.628-.233 1.983c.09 2.259.388 4.696 1.31 6.55.455.915 1.051 1.662 1.827 2.183s1.765.841 3.075.841 2.303-.324 3.074-.841 1.371-1.268 1.827-2.183c.923-1.854 1.221-4.291 1.31-6.55.054-1.355.029-1.66-.233-1.983s-.519-.404-1.726-.607C15.167 2.903 13.74 2.75 12 2.75zm0 3.284l-.199.353-.098.176-.022.041c-.079.144-.209.381-.425.546s-.488.226-.643.26h0l-.043.01-.191.043-.44.103.317.376.13.152.03.035c.108.124.282.325.363.584s.052.52.035.686l-.005.047-.02.203-.042.461.364-.165.179-.082.04-.019c.143-.068.393-.185.672-.185s.528.118.672.185h0l.04.019-.314.681.314-.681.179.082.364.165-.042-.461-.02-.203-.005-.047c-.017-.166-.045-.43.035-.686s.255-.46.363-.584l.03-.035.13-.152.316-.376-.44-.103-.191-.043-.043-.01c-.156-.034-.422-.092-.643-.26s-.347-.402-.426-.546l-.022-.041-.098-.176L12 6.034zm-1.261 4.477h0zm.274-5.712c.172-.225.485-.55.986-.55s.814.325.986.55c.164.215.33.512.5.816l.023.042.098.176.056.101.099.023.191.043.047.011.904.246c.276.109.65.321.795.785.142.456-.037.842-.193 1.09-.145.23-.364.486-.589.749l-.03.036-.13.152-.082.097.012.135.02.203.005.046.055.964c-.013.285-.081.717-.468 1.011-.399.303-.841.237-1.12.157-.258-.074-.562-.214-.869-.355l-.044-.02-.179-.082-.085-.039-.085.039-.314-.681.314.681-.179.082-.044.02-.869.355c-.28.08-.721.146-1.12-.157-.387-.294-.456-.726-.468-1.011-.012-.272.021-.612.055-.964h0l.005-.046.02-.203.013-.135-.082-.097-.13-.152-.031-.036-.589-.749c-.156-.248-.335-.634-.193-1.09.144-.464.519-.676.795-.785.25-.099.576-.172.904-.246L10.046 6l.191-.043.099-.023.056-.101.098-.176.023-.042.499-.816zm2.247 5.712v-.003z" fill="#888b8d"/></svg>