<svg xmlns="http://www.w3.org/2000/svg" width="24" height="24" fill="none"><path fill-rule="evenodd" d="M11.943 1.25h.115 0l5.529.19c1.445.194 2.585.6 3.48 1.494s1.3 2.035 1.494 3.48c.19 1.411.19 3.221.19 5.529v.115l-.19 5.529c-.194 1.445-.6 2.585-1.494 3.48s-2.035 1.3-3.48 1.494c-1.412.19-3.221.19-5.529.19h-.115c-2.308 0-4.117 0-5.529-.19-1.445-.194-2.585-.6-3.48-1.494s-1.3-2.035-1.494-3.48c-.19-1.412-.19-3.221-.19-5.529h0v-.115h0l.19-5.529c.194-1.445.6-2.585 1.494-3.48s2.035-1.3 3.48-1.494c1.411-.19 3.221-.19 5.529-.19h0zM6.614 2.926c-1.278.172-2.049.499-2.619 1.068s-.897 1.34-1.068 2.619l-.07.636h3.731l2.856-4.488-2.831.165zm4.594-.176a.75.75 0 0 1-.074.152L8.366 7.25h4.722l2.831-4.448L12 2.75h-.793zm2.302 6h-.02-6.48-.02-4.213L2.75 12l.176 5.386c.172 1.278.499 2.049 1.068 2.619s1.34.897 2.619 1.068c1.3.175 3.008.176 5.386.176l5.386-.176c1.278-.172 2.049-.499 2.619-1.068s.897-1.34 1.068-2.619c.175-1.3.176-3.008.176-5.386l-.027-3.25h-7.714zm4.089-5.793L14.866 7.25h6.277l-.07-.636c-.172-1.278-.499-2.049-1.068-2.619-.537-.538-1.254-.859-2.407-1.038zm-4.177 8.998l-.052-.034h0l-1.622-.956c-.47-.209-1.073-.359-1.648.006-.545.346-.71.937-.779 1.457s-.069 1.205-.069 2.017v.055.055l.069 2.017c.069.52.234 1.111.779 1.457.575.365 1.177.215 1.648.006.452-.201.996-.552 1.622-.956l.052-.034.049-.032h0L15 15.936c.398-.352.75-.805.75-1.436s-.352-1.085-.75-1.436c-.374-.331-.911-.677-1.53-1.077l-.049-.032zm-2.563.297zm.279.085a1.09 1.09 0 0 0-.24-.083c-.022.043-.061.146-.091.373-.054.408-.056.992-.056 1.874l.056 1.874c.03.226.069.33.091.373a1.08 1.08 0 0 0 .24-.083c.332-.147.776-.431 1.47-.879l1.399-.972c.256-.226.244-.306.243-.312h0 0c.001-.006.013-.086-.243-.312-.278-.246-.716-.531-1.399-.972l-1.47-.879zm-.279 4.412zm.052.02zm0-4.536z" fill="#888b8d"/></svg>