<svg xmlns="http://www.w3.org/2000/svg" width="24" height="24" fill="#888b8d" fill-rule="evenodd"><path d="M13.687 2.087c.498-.442 1.209-.587 2.043-.587h4.04c.834 0 1.546.145 2.043.587.513.456.687 1.123.687 1.893v4.54c0 .769-.174 1.437-.687 1.892-.498.441-1.211.583-2.044.578H15.73c-.832 0-1.544-.142-2.043-.583C13.173 9.952 13 9.283 13 8.51V3.98c0-.769.174-1.437.687-1.893zm.664.748c-.205.182-.351.504-.351 1.145v4.53c0 .647.147.968.35 1.148.219.194.622.332 1.38.332h4.043c.756.005 1.158-.133 1.377-.327.204-.18.35-.502.35-1.143V3.98c0-.641-.146-.963-.351-1.145-.22-.195-.623-.335-1.379-.335h-4.04c-.756 0-1.159.14-1.379.335zm-.686 10.83c.498-.498 1.22-.665 2.065-.665h4.04c.845 0 1.567.167 2.065.665s.665 1.22.665 2.065v4.04c0 .845-.167 1.567-.665 2.065s-1.22.665-2.065.665h-4.04c-.845 0-1.567-.167-2.065-.665S13 20.615 13 19.77v-4.04c0-.845.167-1.567.665-2.065zm.707.707c-.219.219-.372.613-.372 1.358v4.04c0 .745.153 1.138.372 1.358s.613.372 1.358.372h4.04c.745 0 1.138-.153 1.358-.372s.372-.613.372-1.358v-4.04c0-.745-.153-1.138-.372-1.358S20.515 14 19.77 14h-4.04c-.745 0-1.138.153-1.358.372zM2.187 2.087C2.684 1.645 3.396 1.5 4.23 1.5h4.04c.834 0 1.546.145 2.043.587.513.456.687 1.123.687 1.893v4.54c0 .769-.174 1.437-.687 1.892-.498.441-1.211.583-2.044.578H4.23c-.832 0-1.544-.142-2.043-.583C1.673 9.952 1.5 9.283 1.5 8.51V3.98c0-.769.174-1.437.687-1.893zm.664.748c-.205.182-.351.504-.351 1.145v4.53c0 .647.147.968.35 1.148.219.194.622.332 1.38.332h4.043c.756.005 1.158-.133 1.377-.327.204-.18.35-.502.35-1.143V3.98c0-.641-.146-.963-.351-1.145-.22-.195-.623-.335-1.379-.335H4.23c-.756 0-1.159.14-1.379.335zm-.686 10.83C2.663 13.167 3.385 13 4.23 13h4.04c.845 0 1.567.167 2.065.665S11 14.885 11 15.73v4.04c0 .845-.167 1.567-.665 2.065s-1.22.665-2.065.665H4.23c-.845 0-1.567-.167-2.065-.665S1.5 20.615 1.5 19.77v-4.04c0-.845.167-1.567.665-2.065zm.707.707c-.219.219-.372.613-.372 1.358v4.04c0 .745.153 1.138.372 1.358s.613.372 1.358.372h4.04c.745 0 1.138-.153 1.358-.372S10 20.515 10 19.77v-4.04c0-.745-.153-1.138-.372-1.358S9.015 14 8.27 14H4.23c-.745 0-1.138.153-1.358.372z"/></svg>